<svg xmlns="http://www.w3.org/2000/svg" xmlns:xlink="http://www.w3.org/1999/xlink" width="500" height="90" xmlns:v="https://vecta.io/nano"><path d="M156.4 26.7h20.7c6.3 0 11.4 5.1 11.4 11.4v17c0 6.3-5.1 11.4-11.4 11.4h-20.7c-6.3 0-11.4-5.1-11.4-11.4v-17c0-6.3 5.1-11.4 11.4-11.4zm3.6 9.2h13.5c2.7 0 5 2.2 5 5v11.5c0 2.7-2.2 5-5 5H160c-2.7 0-5-2.2-5-5V40.9a4.95 4.95 0 0 1 5-5zm38.3-9.2h9.5l23.6 25.9V26.7h9.5v39.8h-9.5l-23.6-25.4v25.4h-9.5zm73.6 14.8h23.2v25H263c-6.3 0-11.4-5.1-11.4-11.4v-17c0-6.3 5.1-11.4 11.4-11.4h32.1v9.2h-.2-28.3c-2.7 0-5 2.2-5 5v11.5c0 2.7 2.2 5 5 5h18.5V50h-13.2v-8.5zm43.5-14.2H343v8.5h-36.7c.3-4.7 4.3-8.5 9.1-8.5zm-9.1 14.2H343V50h-27v16.5h-9.7v-25zm56.5 0h27V50h-27v8h27v8.5h-36.7V27.3h36.7v8.5h-27zm-259.1 0h-10v25h32.1c6.3 0 11.4-5.1 11.4-11.4v-17c0-6.3-5.1-11.4-11.4-11.4H93.7v9.2h.2 28.3c2.7 0 5 2.2 5 5v11.5c0 2.7-2.2 5-5 5h-18.5V41.5zm296.2-14.8h9.6l23.6 25.9V26.7h9.5v39.8h-9.5l-23.6-25.4v25.4h-9.6zm72.9 14.8H496v25h-32.1c-6.3 0-11.4-5.1-11.4-11.4v-17c0-6.3 5.1-11.4 11.4-11.4H496v9.2h-.2-28.3c-2.7 0-5 2.2-5 5v11.5c0 2.7 2.2 5 5 5H486V50h-13.2v-8.5z" fill-rule="evenodd" fill="#1b1918"/><defs><path id="A" d="M8.3 46.6c0-17.3 14.1-31.4 31.4-31.4S71 29.3 71 46.6 57 78 39.6 78 8.3 63.9 8.3 46.6zm31.2 34.7h.2c19.1-.1 34.6-15.6 34.6-34.7 0-19.2-15.5-34.7-34.7-34.7S4.9 27.4 4.9 46.6s15.5 34.7 34.6 34.7z"/><path id="B" d="M63.5 58.9l-25.7 36-17.4-53.4L46.2 5.6z"/></defs><clipPath id="C"><use xlink:href="#A"/></clipPath><linearGradient id="D" gradientUnits="userSpaceOnUse" x1="39.637" y1="11.908" x2="39.637" y2="81.335"><stop offset="0" stop-color="#b9c6cd"/><stop offset=".01" stop-color="#b9c6cd"/><stop offset=".08" stop-color="#dbe3e6"/><stop offset=".2" stop-color="#fff"/><stop offset=".42" stop-color="#f0f0f1"/><stop offset=".59" stop-color="#c1cbd0"/><stop offset=".66" stop-color="#647881"/><stop offset=".71" stop-color="#00151a"/><stop offset=".87" stop-color="#27353a"/><stop offset=".93" stop-color="#475256"/><stop offset="1" stop-color="#758187"/></linearGradient><path d="M4.9 11.9h69.4v69.4H4.9z" clip-path="url(#C)" fill="url(#D)"/><defs><path id="E" d="M67.4 61.2h3.7c2.1-4.4 3.2-9.4 3.2-14.6 0-18.2-14-33.1-31.8-34.6h-2.9v3.2C57 15.2 71 29.3 71 46.6c0 5.3-1.3 10.3-3.6 14.6z"/></defs><clipPath id="F"><use xlink:href="#E"/></clipPath><linearGradient id="G" gradientUnits="userSpaceOnUse" x1="56.991" y1="12.03" x2="56.991" y2="61.253"><stop offset="0" stop-color="#becad0"/><stop offset=".01" stop-color="#becad0"/><stop offset=".08" stop-color="#ced8dd"/><stop offset=".2" stop-color="#e0e8ec"/><stop offset=".29" stop-color="#bac5ca"/><stop offset=".42" stop-color="#96a2a8"/><stop offset=".59" stop-color="#66757b"/><stop offset=".66" stop-color="#394a50"/><stop offset=".71" stop-color="#00151a"/><stop offset=".87" stop-color="#27353a"/><stop offset=".93" stop-color="#475256"/><stop offset="1" stop-color="#758187"/></linearGradient><path d="M39.6 12h34.7v49.2H39.6z" clip-path="url(#F)" fill="url(#G)"/><defs><path id="H" d="M10.3 46.6c0-16.2 13.1-29.4 29.4-29.4C55.8 17.3 69 30.4 69 46.6S55.8 76 39.6 76 10.3 62.8 10.3 46.6zM39.5 78h.2C57 77.9 71 63.9 71 46.6S57 15.2 39.6 15.2 8.3 29.3 8.3 46.6 22.2 77.9 39.5 78z"/></defs><clipPath id="I"><use xlink:href="#H"/></clipPath><linearGradient id="J" gradientUnits="userSpaceOnUse" x1="-165.571" y1="344.65" x2="-165.571" y2="343.346" gradientTransform="matrix(-47.2523 9.1857 9.1849 47.2561 -10943.584 -14688.5254)"><stop offset="0" stop-color="#eceded"/><stop offset=".13" stop-color="#c6cdd1"/><stop offset=".31" stop-color="#a2adb2"/><stop offset=".79" stop-color="#21282a"/></linearGradient><path d="M82.8 75.7L10.5 89.8l-14-72.3 72.2-14z" clip-path="url(#I)" fill="url(#J)"/><g fill-rule="evenodd"><path d="M39.6 81.5c-19.2 0-34.8-15.6-34.8-34.8s15.6-34.8 34.8-34.8 34.8 15.6 34.8 34.8c.1 19.1-15.6 34.8-34.8 34.8zm0-69.5C20.6 12 5 27.5 5 46.6s15.5 34.6 34.6 34.6 34.6-15.5 34.6-34.6S58.7 12 39.6 12z" fill="#404141"/><path d="M39.6 15A31.54 31.54 0 0 0 8 46.6c0 17.5 14.2 31.7 31.7 31.7s31.7-14.2 31.7-31.7C71.3 29.1 57.1 15 39.6 15zm0 62.7c-17.2 0-31.1-13.9-31.1-31.1s13.9-31.1 31.1-31.1 31.1 13.9 31.1 31.1-13.9 31.1-31.1 31.1z" fill="#fff"/><path d="M39.6 76.1c-16.3 0-29.5-13.2-29.5-29.5s13.2-29.5 29.5-29.5 29.5 13.2 29.5 29.5-13.2 29.5-29.5 29.5zm0-58.7c-16.1 0-29.2 13.1-29.2 29.2s13.1 29.2 29.2 29.2 29.2-13.1 29.2-29.2c.1-16.1-13-29.2-29.2-29.2z" fill="#404141"/></g><defs><path id="K" d="M49.5 73.6h.5c1.1 0 2.2-.1 3.2-.2-12.8-2.7-22.4-13.7-22.4-26.9 0-7.6 3.2-14.5 8.3-19.4-9.9 3.7-16.8 12.3-16.8 22.3-.1 13.3 12.1 24.1 27.2 24.2z"/></defs><clipPath id="L"><use xlink:href="#K"/></clipPath><g clip-path="url(#L)"><defs><path id="M" d="M198.2-75.3h23.7v35.7h-23.7z"/></defs><clipPath id="N"><use xlink:href="#M"/></clipPath><g clip-path="url(#N)"><image width="100" height="149" xlink:href="F7DFD512.jpg" transform="matrix(.24 0 0 .24 198.16 -75.32)" overflow="visible"/></g></g><defs><path id="O" d="M22.2 49.4c0 10.6 7.6 19.6 18.3 22.9C30 68.8 22.6 59.9 22.6 49.4c0-9.9 6.7-18.5 16.4-22.3-9.8 3.6-16.8 12.2-16.8 22.3z"/></defs><clipPath id="P"><use xlink:href="#O"/></clipPath><linearGradient id="Q" gradientUnits="userSpaceOnUse" x1="-182.149" y1="341.578" x2="-182.149" y2="340.274" gradientTransform="matrix(13.9538 -4.224 -1.7133 -34.4018 3157.1802 11008.7129)"><stop offset="0" stop-color="#a2adb2"/><stop offset=".21" stop-color="#eceff0"/><stop offset="1" stop-color="#596064"/></linearGradient><path d="M20 27.7l20.3-6.1 2.5 50-20.3 6.1z" clip-path="url(#P)" fill="url(#Q)"/><defs><path id="R" d="M12.6 55.1c0 1.8.2 3.5.5 5.2.8-5.7 4.3-10.6 9.3-13.1 1-9.1 7.5-16.7 16.6-20.1-14.7.7-26.4 13-26.4 28z"/></defs><clipPath id="S"><use xlink:href="#R"/></clipPath><linearGradient id="T" gradientUnits="userSpaceOnUse" x1="-179.102" y1="343.194" x2="-179.102" y2="341.89" gradientTransform="matrix(18.1971 -11.1596 -8.8753 -22.8806 6325.0991 5882.5332)"><stop offset="0" stop-color="#5c696f"/><stop offset=".15" stop-color="#5c696f"/><stop offset=".24" stop-color="#acb7bc"/><stop offset=".28" stop-color="#fff"/><stop offset=".41" stop-color="#c8ced1"/><stop offset=".47" stop-color="#929a9e"/><stop offset=".75" stop-color="#666d70"/><stop offset="1" stop-color="#a2adb2"/></linearGradient><path d="M2.2 33.5L33.9 14l15.5 39.9-31.7 19.4z" clip-path="url(#S)" fill="url(#T)"/><defs><path id="U" d="M13.9 61.2h0c.6-4.8 3.2-9 6.9-11.7h0s.6-1.4 1.5-2.4c-4.9 2.5-8.5 7.4-9.3 13.1l.9 1z"/></defs><clipPath id="V"><use xlink:href="#U"/></clipPath><linearGradient id="W" gradientUnits="userSpaceOnUse" x1="-157.685" y1="367.297" x2="-157.685" y2="365.994" gradientTransform="matrix(-5.2746 -7.2428 -4.7493 8.044 927.2759 -4037.1692)"><stop offset="0" stop-color="#2f373a"/><stop offset=".37" stop-color="#1c272a"/><stop offset="1" stop-color="#05161a"/></linearGradient><path d="M18.2 68.3L8.5 54.9l8.7-14.8 9.7 13.4z" clip-path="url(#V)" fill="url(#W)"/><defs><path id="X" d="M11.6 54v.2 1.5c0 .2.4 2.3 1.4 4.6-.3-1.7-.5-3.4-.5-5.2 0-15 11.7-27.2 26.4-28h.1l-1.6-.9C23 27.3 11.6 39.3 11.6 54z"/></defs><clipPath id="Y"><use xlink:href="#X"/></clipPath><linearGradient id="Z" gradientUnits="userSpaceOnUse" x1="-172.216" y1="334.285" x2="-172.216" y2="332.981" gradientTransform="matrix(14.3326 19.1066 15.3699 -17.8172 -2634.2373 9278.1055)"><stop offset="0" stop-color="#545f63"/><stop offset=".33" stop-color="#a2adb2"/><stop offset=".57" stop-color="#7c888e"/><stop offset="1" stop-color="#545f63"/></linearGradient><path d="M26.3 9.2l26.4 35.2-28.3 32.9L-2 42z" clip-path="url(#Y)" fill="url(#Z)"/><defs><path id="a" d="M48.2 74.3h.5.9c.2 0 2.7-.6 3.6-.9l-3.6.2c-15.1 0-27.3-10.8-27.3-24.2 0-.8 0-1.5.1-2.3-.1.1-.1.1 0 0-1 1-1.5 2.4-1.5 2.4.2 13.7 12.4 24.7 27.3 24.8z"/></defs><clipPath id="b"><use xlink:href="#a"/></clipPath><linearGradient id="c" gradientUnits="userSpaceOnUse" x1="-178.186" y1="344.023" x2="-178.186" y2="342.719" gradientTransform="matrix(18.161 -14.2101 -16.9354 -15.2384 9088.1406 2761.0891)"><stop offset="0" stop-color="#7b8388"/><stop offset=".19" stop-color="#545f63"/><stop offset=".51" stop-color="#2c363a"/><stop offset="1" stop-color="#00151a"/></linearGradient><path d="M4.6 59.7l33.5-26.1 31.2 28-33.5 26.2z" clip-path="url(#b)" fill="url(#c)"/><defs><path id="d" d="M48.5 73.7h.4c1.4 0 2.8-.1 4.2-.3h.1l-3.6.2c-15.1 0-27.3-10.8-27.3-24.2 0-.8 0-1.5.1-2.3-.1.1-.1.1 0 0-.5.5-.8 1-1.1 1.5v.9c-.1 13.3 12.1 24.2 27.2 24.2z"/></defs><clipPath id="e"><use xlink:href="#d"/></clipPath><linearGradient id="f" gradientUnits="userSpaceOnUse" x1="-178.342" y1="343.857" x2="-178.342" y2="342.553" gradientTransform="matrix(18.1983 -13.6623 -16.3859 -15.1735 8906.4219 2831.491)"><stop offset="0" stop-color="#cad4d9"/><stop offset=".14" stop-color="#8e989e"/><stop offset=".38" stop-color="#4b5356"/><stop offset="1" stop-color="#1a272a"/></linearGradient><path d="M5.4 59l33.5-25.1L69 61.8 35.5 87z" clip-path="url(#e)" fill="url(#f)"/><defs><path id="g" d="M12 54v.2c0 1.3.1 2.5.3 3.7.2.7.5 1.5.8 2.3-.3-1.7-.5-3.4-.5-5.2 0-15 11.7-27.2 26.4-28h.1l-1-.6C23.5 27.3 12 39.3 12 54z"/></defs><clipPath id="h"><use xlink:href="#g"/></clipPath><linearGradient id="i" gradientUnits="userSpaceOnUse" x1="-172.254" y1="334.189" x2="-172.254" y2="332.886" gradientTransform="matrix(14.1674 18.9381 15.1927 -17.66 -2601.4475 9195.8174)"><stop offset="0" stop-color="#616b70"/><stop offset=".33" stop-color="#eceff0"/><stop offset=".57" stop-color="#a7b0b5"/><stop offset="1" stop-color="#616b70"/></linearGradient><path d="M26.4 9.7l26.2 34.9-28 32.5-26.1-34.9z" clip-path="url(#h)" fill="url(#i)"/><defs><path id="j" d="M13.8 61.1c.6-5.2 3.4-9.7 7.5-12.5.3-.4.6-1 1.1-1.5-4.9 2.5-8.5 7.4-9.3 13.1l.7.9z"/></defs><clipPath id="k"><use xlink:href="#j"/></clipPath><linearGradient id="l" gradientUnits="userSpaceOnUse" x1="-158.625" y1="367.789" x2="-158.625" y2="366.485" gradientTransform="matrix(-5.1056 -7.4214 -4.9304 7.6851 1017.9713 -3944.6191)"><stop offset="0" stop-color="#3f4649"/><stop offset=".37" stop-color="#343b3d"/><stop offset="1" stop-color="#2a3234"/></linearGradient><path d="M17.9 68L8.5 54.3l9-14.1L27 53.9z" clip-path="url(#k)" fill="url(#l)"/><defs><path id="m" d="M53.1 73.4h0v-.6c-4.2-1.1-8.1-3.1-11.3-5.7h0l-1.6-.9-.4-1c-4.8-4.9-7.7-11.5-7.7-18.7 0-7.1 2.8-13.5 7.3-18.3l-.4-1c-5.1 5-8.3 11.8-8.3 19.4.1 13.1 9.7 24.1 22.4 26.8z"/></defs><clipPath id="n"><use xlink:href="#m"/></clipPath><linearGradient id="o" gradientUnits="userSpaceOnUse" x1="-159.533" y1="340.085" x2="-159.533" y2="338.782" gradientTransform="matrix(-14.2361 19.871 9.6024 29.46 -5488.5381 -6779.4053)"><stop offset="0" stop-color="#545f63"/><stop offset=".37" stop-color="#2c3b40"/><stop offset="1" stop-color="#00151a"/></linearGradient><use xlink:href="#B" clip-path="url(#n)" fill="url(#o)"/><defs><path id="p" d="M53.1 73.4h0v-.5c-4.8-1.1-9-3.4-12.5-6.5l-.4-.2-.1-.3c-5.2-4.9-8.5-11.8-8.5-19.5 0-7.2 2.9-13.8 7.7-18.7l-.3-.6c-5.1 5-8.3 11.8-8.3 19.4.1 13.2 9.7 24.2 22.4 26.9z"/></defs><clipPath id="q"><use xlink:href="#p"/></clipPath><linearGradient id="r" gradientUnits="userSpaceOnUse" x1="-159.533" y1="340.085" x2="-159.533" y2="338.782" gradientTransform="matrix(-14.2361 19.871 9.6024 29.46 -5488.5381 -6779.4053)"><stop offset="0" stop-color="#616b70"/><stop offset=".37" stop-color="#3d4b50"/><stop offset="1" stop-color="#13252a"/></linearGradient><use xlink:href="#B" clip-path="url(#q)" fill="url(#r)"/><defs><path id="s" d="M26.1 19.8c12.8 2.7 22.4 13.7 22.4 26.9 0 7.6-3.2 14.4-8.3 19.4C50.1 62.5 57 53.9 57 43.8c0-13.4-12.2-24.2-27.4-24.2-1.1 0-2.3.1-3.5.2z"/></defs><clipPath id="t"><use xlink:href="#s"/></clipPath><linearGradient id="u" gradientUnits="userSpaceOnUse" x1="-161.701" y1="342.652" x2="-161.701" y2="341.349" gradientTransform="matrix(-21.3148 15.6495 10.3959 32.0862 -6960.4351 -8400.0586)"><stop offset="0" stop-color="#c6cdd1"/><stop offset=".16" stop-color="#c6cdd1"/><stop offset=".66" stop-color="#475256"/></linearGradient><path d="M69.2 57.2L32.1 84.5 13.9 28.6 51.1 1.3z" clip-path="url(#t)" fill="url(#u)"/><defs><path id="v" d="M56.9 46.1c-1 9.1-7.5 16.7-16.6 20 14.7-.8 26.4-13 26.4-28 0-1.8-.2-3.5-.5-5.2-.8 5.8-4.3 10.7-9.3 13.2z"/></defs><clipPath id="w"><use xlink:href="#v"/></clipPath><linearGradient id="x" gradientUnits="userSpaceOnUse" x1="-160.193" y1="343.949" x2="-160.193" y2="342.645" gradientTransform="matrix(-18.7719 9.5364 7.5843 23.6033 -5557.3198 -6525.7373)"><stop offset="0" stop-color="#545f63"/><stop offset=".25" stop-color="#7b8b92"/></linearGradient><path d="M75.8 61.5L44 77.7 31.1 37.6 63 21.4z" clip-path="url(#w)" fill="url(#x)"/><defs><path id="y" d="M56.9 46.1c4.9-2.5 8.5-7.4 9.3-13.1l-.9-1h0a17.41 17.41 0 0 1-6.8 11.7h0s-.6 1.4-1.6 2.4z"/></defs><clipPath id="z"><use xlink:href="#y"/></clipPath><g clip-path="url(#z)"><defs><path id="AA" d="M228-76.9l7.4 10.3-6.7 11.3-7.4-10.2z"/></defs><clipPath id="AB"><use xlink:href="#AA"/></clipPath><g clip-path="url(#AB)"><image width="61" height="92" xlink:href="F7DFD516.jpg" transform="matrix(.24 0 0 .24 221.2 -77)" overflow="visible"/></g></g><defs><path id="AC" d="M67.6 39.2V39c0-.5 0-1-.1-1.5 0-.2-.4-2.3-1.4-4.6.3 1.7.5 3.4.5 5.2 0 15-11.7 27.2-26.4 28h-.1l1.6.9c14.6-1 25.9-13.1 25.9-27.8z"/></defs><clipPath id="AD"><use xlink:href="#AC"/></clipPath><g clip-path="url(#AD)"><defs><path id="AE" d="M222.8-31.5l-21.3-25.7 20.6-26.6 21.4 25.7z"/></defs><clipPath id="AF"><use xlink:href="#AE"/></clipPath><g clip-path="url(#AF)"><image width="177" height="220" xlink:href="F7DFD511.jpg" transform="matrix(.24 0 0 .24 201.28 -83.96)" overflow="visible"/></g></g><defs><path id="AG" d="M29.7 19c-.2 0-2.7.6-3.5.9l3.6-.2c15-.1 27.2 10.8 27.2 24.1 0 .8 0 1.5-.1 2.3.1-.1.1-.1 0 0 1-1 1.6-2.4 1.6-2.4C58.1 30 45.9 19 31 19h-1.3z"/></defs><clipPath id="AH"><use xlink:href="#AG"/></clipPath><linearGradient id="AI" gradientUnits="userSpaceOnUse" x1="26.128" y1="32.556" x2="58.502" y2="32.556"><stop offset="0" stop-color="#3b4548"/><stop offset=".14" stop-color="#5a6468"/><stop offset=".35" stop-color="#798387"/><stop offset="1" stop-color="#05161a"/></linearGradient><path d="M26.1 19h32.4v27.2H26.1z" clip-path="url(#AH)" fill="url(#AI)"/><defs><path id="AJ" d="M58 43.9v-.1c0-13.4-12.3-24.3-27.4-24.3-1.5 0-3 .1-4.4.3h-.1c1.2-.1 2.4-.2 3.6-.2C44.8 19.6 57 30.5 57 43.8c0 .8 0 1.5-.1 2.3.1-.1.1-.1 0 0 .5-.5.8-1 1.1-1.5v-.7z"/></defs><clipPath id="AK"><use xlink:href="#AJ"/></clipPath><linearGradient id="AL" gradientUnits="userSpaceOnUse" x1="-178.039" y1="344.51" x2="-178.039" y2="343.206" gradientTransform="matrix(17.3103 -14.4377 -17.3103 -14.4377 9076.2725 2426.8657)"><stop offset="0" stop-color="#d3dde2"/><stop offset=".25" stop-color="#9aa7ae"/><stop offset=".55" stop-color="#5e6a6f"/><stop offset=".82" stop-color="#3b4548"/><stop offset="1" stop-color="#28363a"/></linearGradient><path d="M10.2 32.8L42.1 6.2 74 32.8 42.1 59.4z" clip-path="url(#AK)" fill="url(#AL)"/><defs><path id="AM" d="M41.3 66.7h0c14.5-.7 26-12.8 26-27.5v-.1c0-1.3-.1-2.6-.3-3.8-.2-.7-.5-1.5-.8-2.3.3 1.7.5 3.4.5 5.2 0 15-11.7 27.2-26.4 28h-.1l1.1.5z"/></defs><clipPath id="AN"><use xlink:href="#AM"/></clipPath><g clip-path="url(#AN)"><defs><path id="AO" d="M222.7-83.7l20.4 26.4L222-31.9l-20.4-26.3z"/></defs><clipPath id="AP"><use xlink:href="#AO"/></clipPath><g clip-path="url(#AP)"><image width="174" height="217" xlink:href="F7DFD513.jpg" transform="matrix(.24 0 0 .24 201.52 -83.72)" overflow="visible"/></g></g><defs><path id="AQ" d="M58 44.6c-.3.5-.6 1-1.1 1.5 4.9-2.5 8.5-7.4 9.3-13.1l-.7-.8A17.51 17.51 0 0 1 58 44.6z"/></defs><clipPath id="AR"><use xlink:href="#AQ"/></clipPath><g clip-path="url(#AR)"><defs><path id="AS" d="M228.3-76.7l7.1 10.7-7.1 10.7-7.1-10.7z"/></defs><clipPath id="AT"><use xlink:href="#AS"/></clipPath><g clip-path="url(#AT)"><image width="61" height="91" xlink:href="F7DFD510.jpg" transform="matrix(.24 0 0 .24 221.2 -76.76)" overflow="visible"/></g></g><defs><path id="AU" d="M26.1 19.8v.6c4.2 1.1 8.1 3.1 11.3 5.8h0l1.6.9.4 1c4.8 4.9 7.7 11.5 7.7 18.7 0 7.1-2.8 13.5-7.3 18.3l.4 1c5.1-5 8.3-11.9 8.3-19.4 0-13.1-9.6-24.2-22.4-26.9z"/></defs><clipPath id="AV"><use xlink:href="#AU"/></clipPath><linearGradient id="AW" gradientUnits="userSpaceOnUse" x1="-159.35" y1="340.534" x2="-159.35" y2="339.231" gradientTransform="matrix(-14.7091 18.304 8.8381 30.4629 -5310.521 -7394.0586)"><stop offset="0" stop-color="#7f8c92"/><stop offset=".01" stop-color="#7f8c92"/><stop offset=".37" stop-color="#5b666b"/><stop offset="1" stop-color="#2f373a"/></linearGradient><path d="M58.4 53.9L32.1 86.6 16.2 32.1 42.6-.6z" clip-path="url(#AV)" fill="url(#AW)"/><defs><path id="AX" d="M26.1 19.8v.5c4.7 1.1 9 3.4 12.5 6.5l.4.2.1.3c5.2 4.9 8.5 11.8 8.5 19.5 0 7.2-2.9 13.8-7.7 18.7l.3.7c5.1-5 8.3-11.9 8.3-19.4 0-13.2-9.6-24.3-22.4-27z"/></defs><clipPath id="AY"><use xlink:href="#AX"/></clipPath><linearGradient id="AZ" gradientUnits="userSpaceOnUse" x1="-159.397" y1="340.358" x2="-159.397" y2="339.054" gradientTransform="matrix(-14.5526 18.8328 9.0935 30.1388 -5371.4585 -7193.4165)"><stop offset="0" stop-color="#a8b6bc"/><stop offset=".01" stop-color="#a8b6bc"/><stop offset=".37" stop-color="#65747b"/><stop offset="1" stop-color="#1a272a"/></linearGradient><path d="M58.5 53.2L32.4 87 16.1 32.9 42.2-1z" clip-path="url(#AY)" fill="url(#AZ)"/><defs><path id="Aa" d="M40.2 66.2C50.1 62.5 57 53.9 57 43.8c0-10.6-7.7-19.6-18.3-22.9 10.5 3.5 17.9 12.4 17.9 22.9 0 10-6.7 18.5-16.4 22.4.1-.1 0 0 0 0z"/></defs><clipPath id="Ab"><use xlink:href="#Aa"/></clipPath><linearGradient id="Ac" gradientUnits="userSpaceOnUse" x1="-157.13" y1="344.719" x2="-157.13" y2="343.416" gradientTransform="matrix(-13.9577 4.224 1.7138 34.4018 -2734.9592 -11129.2441)"><stop offset="0" stop-color="#a2adb2"/><stop offset=".21" stop-color="#eceff0"/><stop offset="1" stop-color="#798387"/></linearGradient><path d="M59.3 65.5L39 71.6l-2.5-49.9 20.3-6.2z" clip-path="url(#Ab)" fill="url(#Ac)"/></svg>